<?xml version="1.0" standalone="no"?>
<!DOCTYPE svg PUBLIC "-//W3C//DTD SVG 20010904//EN"
 "http://www.w3.org/TR/2001/REC-SVG-20010904/DTD/svg10.dtd">
<svg version="1.0" xmlns="http://www.w3.org/2000/svg"
 width="502.000000pt" height="502.000000pt" viewBox="0 0 502.000000 502.000000"
 preserveAspectRatio="xMidYMid meet">
<metadata>
Created by potrace 1.14, written by Peter Selinger 2001-2017
</metadata>
<g transform="translate(0.000000,502.000000) scale(0.100000,-0.100000)"
fill="#000000" stroke="none">
<path d="M0 2510 l0 -2510 1378 0 1379 0 -5 30 c-4 29 12 43 21 18 3 -7 2 6 0
30 -5 33 -2 42 10 42 10 0 13 6 10 19 -3 10 1 22 8 26 9 6 11 2 7 -13 -12 -43
9 -21 23 25 8 26 20 49 28 51 8 3 11 0 8 -5 -3 -5 0 -10 8 -10 19 0 19 2 -1
21 -16 17 -10 41 8 30 7 -5 9 -1 5 9 -3 10 -2 17 3 17 6 0 10 -7 10 -15 0 -8
4 -15 9 -15 5 0 6 21 3 46 -4 39 -2 46 15 50 12 3 26 15 32 27 7 13 9 14 7 5
-3 -11 0 -18 7 -18 19 0 36 20 30 35 -7 21 15 55 32 49 11 -5 14 -1 9 12 -5
14 -4 16 5 8 9 -8 9 -18 0 -40 -6 -16 -13 -23 -16 -16 -8 20 -22 14 -16 -8 3
-10 -2 -26 -11 -35 -9 -9 -16 -24 -17 -33 0 -11 -2 -12 -6 -4 -8 20 -18 14
-20 -14 0 -15 -5 -29 -10 -33 -4 -3 -13 -15 -19 -26 -7 -11 -19 -19 -28 -17
-9 2 -16 -2 -16 -8 0 -5 5 -10 10 -10 7 0 7 -7 0 -20 -6 -11 -15 -18 -21 -15
-5 4 -9 -3 -9 -14 0 -26 -17 -36 -23 -14 -3 10 -5 4 -6 -13 -1 -39 -22 -90
-51 -126 l-21 -28 25 0 c20 0 31 10 51 48 25 46 96 158 175 278 49 73 180 213
232 247 l37 24 103 -27 c127 -34 224 -67 263 -91 62 -37 81 -107 92 -336 l6
-143 634 0 633 0 0 2510 0 2510 -576 0 -577 0 29 -22 c16 -12 33 -29 38 -37 5
-7 24 -31 42 -51 19 -21 34 -42 34 -48 0 -6 6 -15 13 -19 14 -9 67 -78 67 -88
0 -3 15 -29 33 -58 42 -65 81 -149 98 -207 7 -25 15 -49 19 -55 12 -19 70
-210 96 -320 25 -104 27 -128 32 -412 3 -206 0 -335 -8 -403 -13 -102 -24
-131 -36 -85 -3 14 -10 25 -15 25 -12 0 -11 -17 1 -25 6 -4 8 -10 6 -14 -7
-10 20 -127 43 -191 11 -30 20 -49 21 -42 0 22 21 13 58 -25 21 -21 55 -50 77
-64 22 -15 54 -39 70 -54 63 -56 168 -95 298 -110 68 -8 68 -14 1 -21 -87 -10
-245 43 -316 104 -41 36 -110 82 -121 82 -21 0 16 -93 64 -162 11 -14 19 -29
19 -33 0 -12 73 -98 128 -150 28 -28 52 -54 52 -58 0 -10 -103 -55 -156 -68
-68 -17 -166 1 -296 56 -14 6 -18 2 -18 -16 0 -43 59 -230 95 -302 19 -39 33
-72 32 -74 -8 -8 -80 21 -141 57 -79 46 -101 51 -90 18 11 -35 94 -192 106
-199 21 -13 -10 -19 -39 -8 -15 7 -33 13 -38 14 -6 2 -46 17 -89 34 -42 17
-79 31 -82 31 -2 0 -20 -25 -39 -55 -49 -76 -87 -117 -169 -184 -108 -88 -100
-92 -93 45 l7 119 -25 -30 c-14 -17 -50 -61 -80 -100 -102 -129 -150 -184
-203 -231 -29 -25 -54 -45 -56 -43 -3 4 -15 153 -16 197 0 38 -23 24 -82 -50
-32 -40 -91 -106 -132 -147 -74 -73 -75 -74 -81 -48 -10 37 3 98 23 114 9 8
35 22 57 33 22 11 74 49 116 85 42 35 80 61 84 57 5 -4 5 -1 1 6 -5 8 6 31 31
60 21 26 52 65 68 87 16 21 36 47 45 56 8 8 20 24 26 35 9 16 21 18 77 16 44
-2 75 2 95 12 73 38 259 252 238 273 -3 3 2 12 12 19 16 13 16 13 -1 14 -10 0
-16 4 -13 9 3 5 -1 11 -9 15 -8 3 -14 2 -14 -2 1 -4 0 -9 -1 -12 -1 -3 -3 -19
-5 -37 -3 -38 -112 -183 -174 -232 -62 -50 -92 -56 -152 -35 -51 19 -52 19
-63 0 -51 -85 -120 -175 -195 -253 -101 -103 -149 -141 -236 -185 -33 -17 -62
-34 -65 -38 -3 -4 -49 -28 -102 -54 -53 -25 -100 -51 -103 -56 -6 -10 26 3 90
36 43 23 144 58 149 53 2 -2 -3 -56 -11 -119 -24 -198 -8 -292 61 -349 15 -12
13 -16 -16 -38 -18 -14 -53 -35 -78 -48 -25 -12 -90 -47 -145 -77 -100 -54
-133 -71 -297 -146 -47 -22 -142 -76 -210 -119 -146 -94 -282 -173 -364 -209
-70 -32 -175 -46 -193 -27 -8 9 -11 50 -8 135 3 116 4 123 24 122 28 -2 79
-41 114 -88 22 -30 29 -35 29 -20 0 11 -33 51 -80 95 -87 82 -90 91 -69 174
15 61 68 118 157 170 87 51 102 54 102 23 0 -13 5 -30 11 -38 8 -11 9 6 5 60
-7 97 -29 187 -67 278 -38 92 -34 108 18 84 21 -9 60 -30 86 -45 48 -28 81
-32 35 -4 -252 155 -267 165 -463 310 -180 134 -310 277 -374 412 -18 39 -52
135 -75 214 -23 80 -48 147 -55 149 -10 3 -12 -4 -8 -29 7 -48 16 -85 27 -114
6 -15 10 -37 10 -51 0 -22 -2 -23 -21 -12 -11 7 -33 41 -50 75 -31 64 -49 86
-49 58 0 -21 45 -114 68 -141 10 -12 32 -29 50 -38 35 -18 75 -87 54 -94 -7
-2 -10 -8 -6 -13 8 -14 -9 -11 -53 11 -24 11 -55 39 -75 67 -35 49 -115 208
-139 276 -12 35 -28 49 -30 27 -4 -29 -1 -38 22 -75 15 -22 30 -51 34 -65 4
-14 14 -36 21 -50 8 -14 32 -56 53 -95 47 -86 74 -107 144 -113 l53 -4 47 -72
c26 -39 66 -91 90 -116 63 -66 219 -211 264 -243 21 -16 66 -48 100 -73 63
-46 76 -64 67 -89 -13 -34 -63 -4 -173 102 -55 53 -77 59 -67 18 3 -13 2 -26
-3 -29 -10 -6 -221 208 -271 276 -19 26 -40 48 -47 48 -7 0 -13 -20 -15 -52
l-3 -53 -19 40 c-80 171 -88 186 -104 183 -13 -2 -18 -16 -20 -56 -3 -45 -5
-52 -18 -42 -7 7 -14 18 -14 24 0 7 -17 48 -38 92 -21 43 -49 110 -61 149 -12
38 -30 83 -39 100 -9 16 -20 41 -23 55 -4 18 -7 10 -13 -32 -4 -32 -11 -58
-15 -58 -12 0 -27 21 -36 50 -4 14 -14 34 -22 45 -14 19 -14 18 -8 -11 8 -40
-16 -61 -86 -74 -59 -11 -187 -15 -196 -6 -4 3 6 17 20 30 15 14 27 30 27 36
0 5 4 10 8 10 8 0 102 163 102 176 0 3 -6 4 -12 3 -33 -4 -41 1 -28 16 7 8 18
15 26 15 14 0 59 41 67 62 3 8 6 5 6 -6 1 -11 3 -17 6 -14 4 3 3 17 -1 32 -5
22 -8 23 -20 11 -29 -28 -126 -49 -239 -49 -95 -1 -122 3 -197 28 -80 26 -112
46 -73 46 8 0 49 17 92 37 114 54 226 170 286 296 24 50 51 117 60 147 21 74
33 355 18 434 -19 103 -26 357 -11 428 7 35 16 68 20 73 4 6 11 26 15 45 4 19
14 49 23 65 30 59 32 65 32 80 0 17 16 20 25 5 13 -21 24 -8 30 38 11 85 36
186 61 248 13 33 24 64 24 68 0 4 16 30 35 59 37 55 48 90 20 67 -8 -7 -15
-18 -15 -26 0 -7 -8 -15 -17 -19 -21 -7 -71 -73 -158 -210 -86 -134 -150 -260
-184 -359 -15 -44 -44 -126 -65 -181 -47 -130 -73 -231 -81 -326 -7 -76 -18
-110 -31 -96 -11 10 13 198 36 279 11 40 34 111 51 158 16 47 43 123 58 170
35 106 88 210 183 365 122 199 333 448 375 443 21 -3 73 33 73 51 0 6 19 12
43 14 23 2 -240 4 -585 5 l-628 2 0 -2510z m568 -72 c-14 -18 -31 -35 -39 -38
-64 -30 -91 -42 -139 -60 -63 -23 -63 -23 -56 -11 3 4 38 20 78 35 44 16 91
42 118 66 55 48 71 51 38 8z m830 -1512 c-6 -11 -21 -37 -33 -56 -12 -19 -26
-46 -30 -60 -4 -14 -18 -47 -31 -75 -12 -27 -31 -70 -43 -95 -11 -25 -27 -56
-35 -70 -9 -14 -22 -41 -31 -60 -8 -19 -19 -42 -24 -50 -5 -8 -27 -44 -48 -80
-43 -74 -84 -127 -201 -263 -74 -85 -106 -118 -87 -88 3 5 1 12 -4 16 -15 9
-111 206 -111 227 0 25 132 288 187 370 55 85 156 188 205 211 20 10 40 22 43
26 5 10 116 53 175 68 19 5 45 7 57 5 20 -4 21 -7 11 -26z m1557 17 c5 -15 4
-16 -6 -5 -18 17 -34 15 -20 -2 7 -8 8 -17 3 -20 -11 -6 -23 29 -14 38 11 12
30 6 37 -11z m-40 -34 c17 -12 22 -19 13 -15 -11 3 -18 0 -18 -8 0 -7 -10 -21
-22 -32 -12 -10 -18 -13 -14 -6 4 6 5 12 2 12 -2 0 -12 3 -22 7 -12 4 -15 3
-10 -6 5 -8 0 -18 -13 -27 -12 -8 -21 -25 -21 -37 0 -20 -4 -22 -40 -19 -22 2
-40 8 -40 13 0 5 -4 9 -10 9 -5 0 -10 -3 -9 -7 2 -15 -13 -53 -21 -53 -5 0
-10 6 -13 13 -3 9 -7 9 -20 -2 -10 -7 -17 -10 -17 -5 0 5 -6 -2 -13 -16 -9
-19 -24 -27 -60 -34 -26 -4 -47 -14 -47 -20 0 -7 -21 -25 -47 -42 -25 -16 -53
-35 -60 -42 -15 -15 -43 -9 -43 8 0 6 4 9 9 5 5 -3 12 -1 16 5 3 5 0 10 -7 10
-9 0 -9 3 2 10 13 8 12 10 -2 10 -10 0 -18 -6 -18 -14 0 -7 -10 -20 -22 -29
-19 -12 -21 -18 -10 -28 6 -7 12 -18 12 -24 0 -5 -4 -4 -9 4 -7 11 -15 11 -41
2 -18 -6 -37 -8 -44 -4 -6 3 -8 3 -4 -2 8 -8 -15 -35 -31 -35 -6 0 -8 -7 -4
-16 4 -12 2 -15 -8 -12 -8 3 -13 12 -11 22 2 12 -3 15 -20 12 -13 -3 -27 -5
-31 -5 -4 -1 -11 -11 -16 -23 -5 -14 -17 -22 -34 -22 -30 -2 -34 6 -12 24 10
9 15 9 15 1 0 -6 5 -11 11 -11 6 0 9 7 5 15 -3 9 3 19 17 26 12 6 32 20 44 31
12 11 26 17 32 13 6 -3 11 -2 11 2 0 5 37 33 83 63 45 30 85 59 89 65 4 5 8 6
8 2 0 -4 15 3 33 16 32 25 129 73 157 79 8 2 17 5 20 8 3 3 30 16 60 30 30 14
57 28 60 31 5 6 140 68 150 69 3 0 19 -10 35 -21z m219 -367 c3 -5 -1 -9 -9
-9 -8 0 -12 4 -9 9 3 4 7 8 9 8 2 0 6 -4 9 -8z m-54 -58 c0 -8 -4 -12 -10 -9
-5 3 -10 10 -10 16 0 5 5 9 10 9 6 0 10 -7 10 -16z m-1030 -19 c0 -8 -7 -15
-15 -15 -13 0 -14 3 -3 15 16 18 18 18 18 0z m702 -377 c-9 -9 -12 -7 -12 12
0 19 3 21 12 12 9 -9 9 -15 0 -24z"/>
<path d="M2873 913 c-7 -2 -13 -9 -13 -14 0 -6 5 -7 12 -3 8 5 9 2 5 -9 -3
-10 -2 -17 3 -17 6 0 10 11 10 25 0 14 -1 25 -2 24 -2 0 -9 -3 -15 -6z"/>
<path d="M2820 880 c-8 -5 -12 -12 -9 -15 4 -3 12 1 19 10 14 17 11 19 -10 5z"/>
<path d="M2765 860 c3 -5 8 -10 11 -10 2 0 4 5 4 10 0 6 -5 10 -11 10 -5 0 -7
-4 -4 -10z"/>
<path d="M2750 805 c7 -8 17 -15 22 -15 5 0 3 7 -6 15 -8 8 -18 15 -22 15 -3
0 -1 -7 6 -15z"/>
<path d="M2570 720 c0 -5 5 -10 10 -10 6 0 10 5 10 10 0 6 -4 10 -10 10 -5 0
-10 -4 -10 -10z"/>
<path d="M2460 680 c-8 -5 -12 -12 -9 -15 4 -3 12 1 19 10 14 17 11 19 -10 5z"/>
<path d="M2420 650 c0 -5 6 -10 13 -11 6 0 3 -4 -8 -9 -22 -10 -5 -13 19 -4
13 5 13 8 1 20 -16 16 -25 18 -25 4z"/>
<path d="M1460 3176 c-114 -32 -183 -77 -164 -107 9 -16 -87 -100 -108 -95
-10 2 -22 -2 -28 -9 -14 -17 8 -35 41 -33 59 2 77 -11 81 -66 1 -13 6 -22 11
-19 12 8 47 -27 47 -48 0 -10 -4 -21 -10 -24 -5 -3 -10 -11 -10 -17 0 -7 4 -7
13 0 10 8 21 6 45 -8 18 -11 32 -18 32 -16 0 2 -18 49 -40 105 -22 55 -40 109
-40 120 0 28 89 103 146 124 27 9 73 20 102 24 43 5 52 3 52 -10 0 -9 -8 -18
-17 -21 -22 -7 -79 -91 -87 -129 -6 -27 -5 -28 26 -25 26 2 37 10 49 35 25 50
38 62 75 69 47 9 68 -12 95 -93 38 -114 18 -208 -52 -250 -52 -32 -93 4 -138
120 -10 24 -16 28 -44 25 -29 -3 -32 -6 -29 -33 4 -30 62 -148 86 -173 7 -7
41 -15 77 -18 70 -7 79 -2 133 69 53 69 53 264 2 352 -15 25 -22 45 -16 45 14
0 66 -37 115 -82 l40 -37 8 42 c7 41 6 43 -39 85 -59 55 -86 68 -186 92 -93
22 -200 25 -268 6z"/>
<path d="M1829 3175 c18 -8 41 -15 50 -15 27 1 -31 29 -59 29 -23 0 -22 -1 9
-14z"/>
<path d="M3035 3140 c-86 -10 -132 -27 -201 -75 -79 -57 -90 -70 -74 -90 10
-12 10 -21 1 -41 -21 -46 -11 -49 27 -8 20 22 56 55 79 72 44 34 113 67 113
55 0 -5 4 -2 9 6 7 11 32 15 98 15 79 1 95 -2 155 -31 119 -56 191 -154 169
-229 -4 -16 -27 -61 -51 -99 -23 -39 -45 -74 -48 -79 -3 -6 16 5 41 24 26 18
47 37 47 42 0 13 43 58 56 58 18 0 38 27 23 32 -19 6 0 46 24 50 14 2 21 10
21 20 -1 10 2 15 7 12 26 -16 1 14 -56 67 -63 59 -77 83 -54 91 15 5 -95 71
-151 91 -54 19 -153 26 -235 17z"/>
<path d="M2978 3028 c-42 -25 -88 -100 -88 -147 0 -26 4 -31 24 -31 19 0 26 7
31 30 9 39 63 97 100 106 37 9 73 -11 99 -56 17 -28 21 -52 21 -120 0 -100
-18 -142 -70 -167 -30 -14 -40 -15 -75 -3 -47 15 -53 22 -71 73 -7 20 -16 37
-20 37 -4 0 -14 3 -23 6 -29 11 -20 -58 13 -102 59 -81 97 -99 171 -82 57 13
103 53 126 107 40 94 25 257 -29 317 -48 56 -143 70 -209 32z"/>
<path d="M1668 2929 c-38 -65 -14 -159 39 -159 28 0 43 32 43 89 0 94 -46 134
-82 70z"/>
<path d="M3056 2903 c-4 -5 -13 -8 -19 -8 -17 0 -37 -45 -37 -82 0 -41 16 -82
35 -89 27 -11 65 5 65 26 0 11 3 20 8 20 12 0 31 51 25 68 -19 52 -57 84 -77
65z"/>
<path d="M3701 2436 c-7 -24 -21 -53 -32 -64 -13 -15 -15 -23 -7 -28 16 -10
55 42 63 83 8 44 8 47 -2 50 -5 2 -14 -17 -22 -41z"/>
<path d="M4172 2360 c0 -19 2 -27 5 -17 2 9 2 25 0 35 -3 9 -5 1 -5 -18z"/>
<path d="M3612 2337 c-15 -17 -35 -114 -29 -131 8 -20 75 -27 112 -12 33 14
95 81 95 103 0 17 -28 5 -35 -15 -2 -10 -27 -32 -54 -50 -41 -29 -52 -32 -70
-23 -21 12 -29 55 -12 65 8 5 14 76 6 76 -1 0 -7 -6 -13 -13z"/>
<path d="M4191 2274 c0 -11 3 -14 6 -6 3 7 2 16 -1 19 -3 4 -6 -2 -5 -13z"/>
<path d="M4204 2230 c-5 -5 -22 -11 -37 -12 -26 -2 -26 -4 -11 -15 23 -17 74
-17 74 0 0 22 -15 38 -26 27z"/>
<path d="M2160 1340 c8 -5 20 -10 25 -10 6 0 3 5 -5 10 -8 5 -19 10 -25 10 -5
0 -3 -5 5 -10z"/>
<path d="M2940 324 c0 -8 5 -12 10 -9 6 4 8 11 5 16 -9 14 -15 11 -15 -7z"/>
<path d="M2795 110 c-3 -5 -2 -10 4 -10 5 0 13 5 16 10 3 6 2 10 -4 10 -5 0
-13 -4 -16 -10z"/>
</g>
</svg>
